<svg version="1" xmlns="http://www.w3.org/2000/svg" width="346.667" height="346.667" viewBox="0 0 260.000000 260.000000"><path d="M123.8 38.9l-3.2 2.8v62.4c0 48.3.3 62.9 1.3 64.7.7 1.3 2.8 3 4.7 3.8 2.9 1.2 3.9 1.2 6.8 0 1.9-.8 4-2.5 4.7-3.8 1-1.8 1.3-16.5 1.3-64.7V41.7l-3.2-2.8c-4.2-3.8-8.2-3.8-12.4 0zM92.5 46.6C72.2 51.5 54 59.5 36.9 71 25.3 78.9 12.6 90.1 11 94c-2.7 6.6 3.3 14 10.2 12.5 1.7-.4 6.3-3.7 10.6-7.7 8.8-8 20.1-15.8 31.7-21.8 8.1-4.2 27.9-11.3 34.8-12.6l3.7-.6v-9.4c0-10.7.6-10.2-9.5-7.8zM158 54.3v9.4l5.8 1.3c21.3 4.7 48 18.6 63.2 33 3.6 3.3 7.9 6.7 9.6 7.5 5.5 2.5 10.6.4 12.4-5.1 1.7-5 .1-8.1-7.7-15.1-6-5.3-24.6-19.3-25.7-19.3-.3 0-2.8-1.4-5.7-3.1-10.4-6.1-27.9-12.8-42.9-16.5-9.4-2.3-9-2.7-9 7.9zM93 98.4c-10.4 3.8-17.4 7.1-25.2 12.2-9 5.7-19.4 14.7-21.2 18.3-3.1 6.1 1.5 13.1 8.6 13.1 2.2 0 6.2-2.1 8.3-4.5 5.2-5.8 19.5-15 29.9-19.2l8.1-3.2.3-9.6c.2-7.2 0-9.5-1-9.5-.7.1-4.2 1.1-7.8 2.4zM158 105.2v9.5l8.8 3.7c9 3.7 20.3 10.6 26.3 16.1 8.4 7.6 11.2 8.7 16.2 6.4 3.9-1.8 5.8-5.9 4.6-10.2-2.6-9.5-34.1-29.8-53.1-34.3l-2.8-.6v9.4zM94.2 153c-7.5 5.1-13.2 11.2-13.2 14.5 0 3.5 1.9 7.1 4.4 8.3 5.4 2.6 7.2 2.2 13.7-3.1l3.4-2.8-.3-10.4c-.2-5.8-.7-10.5-1.2-10.5-.4 0-3.5 1.8-6.8 4zM157.8 159.2l-.3 10.2 3.3 3.1c4.7 4.2 6.9 5.2 10.2 4.7 5.4-.8 9-6.2 7.6-11.7-.3-1.3-2.5-4.1-4.7-6.2-4-3.7-13.6-10.3-15-10.3-.4 0-.9 4.6-1.1 10.2zM122.8 194.4c-7.2 3.6-10.4 13.8-6.6 20.9 2.9 5.6 11.5 9.1 18 7.4 7.2-1.8 12.3-9.5 11.1-16.9-1.6-10.8-12.7-16.4-22.5-11.4z"/></svg>